<svg width="20" height="20" viewBox="0 0 20 20" fill="none" xmlns="http://www.w3.org/2000/svg">
<g id="Solid/Status/Star-half">
<path id="Icon" d="M10.416 2.05179C10.416 1.8357 10.2427 1.64483 10.0409 1.7221C9.87333 1.78627 9.72332 1.90616 9.62143 2.08175L7.35972 5.97951C7.20108 6.25291 6.92687 6.43949 6.61432 6.48669L2.37572 7.12688C1.66382 7.23441 1.41411 8.13325 1.96853 8.59258L5.1261 11.2086C5.41839 11.4508 5.55582 11.8327 5.48482 12.2056L4.65885 16.5432C4.52828 17.2289 5.2481 17.7617 5.86572 17.4365L9.8569 15.3349C9.89595 15.3144 9.93598 15.2965 9.97673 15.2812C10.2031 15.1963 10.416 15.012 10.416 14.7703V2.05179Z" fill="#299764"/>
</g>
</svg>
