<svg width="20" height="20" viewBox="0 0 20 20" fill="none" xmlns="http://www.w3.org/2000/svg">
<g id="Solid/Status/Star">
<path id="Icon" d="M10.7212 2.49664C10.4 1.94318 9.60079 1.94318 9.27964 2.49664L7.01793 6.39439C6.85928 6.6678 6.58507 6.85437 6.27252 6.90158L2.03393 7.54177C1.32203 7.64929 1.07231 8.54813 1.62673 9.00747L4.78431 11.6235C5.07659 11.8656 5.21402 12.2476 5.14302 12.6205L4.31705 16.9581C4.18648 17.6438 4.9063 18.1765 5.52393 17.8513L9.5151 15.7498C9.81888 15.5899 10.182 15.5899 10.4857 15.7498L14.4769 17.8513C15.0945 18.1765 15.8144 17.6438 15.6838 16.9581L14.8578 12.6205C14.7868 12.2476 14.9242 11.8656 15.2165 11.6235L18.3741 9.00747C18.9285 8.54814 18.6788 7.64929 17.9669 7.54177L13.7283 6.90158C13.4158 6.85437 13.1416 6.6678 12.9829 6.3944L10.7212 2.49664Z" fill="#299764"/>
</g>
</svg>
